# xmcd CD database file
#
# Track frame offsets:
#	150
#	13503
#	28788
#	44300
#	60992
#	74416
#	91029
#	104122
#	120514
#	134852
#	156521
#	175002
#	187728
#
# Disc length: 2783 seconds
#
# Revision: 0
# Processed by: cddbd v1.5.2PL0 Copyright (c) Steve Scherf et al.
# Submitted via: CDex 1.70beta2
#
DISCID=ad0add0d
DTITLE=Solar Blues - Seven Dollars and a Sandwich
DYEAR=2003
DGENRE=Blues
TTITLE0=Big Break
TTITLE1=She's So Good to Me
TTITLE2=Evil and Mean
TTITLE3=Shadows in the Night
TTITLE4=Name Game
TTITLE5=Tiki Reef
TTITLE6=Welcome to the Weekend
TTITLE7=Burn It Down
TTITLE8=Am What I Am
TTITLE9=Again and Again
TTITLE10=Nighttime Breeze
TTITLE11=Throw a Dog a Bone
TTITLE12=Voodoo Moonlight
EXTD=YEAR: 2003
EXTT0=
EXTT1=
EXTT2=
EXTT3=
EXTT4=
EXTT5=
EXTT6=
EXTT7=
EXTT8=
EXTT9=
EXTT10=
EXTT11=
EXTT12=
PLAYORDER=
